<svg width="21" height="20" viewBox="0 0 21 20" fill="none" xmlns="http://www.w3.org/2000/svg">
<path d="M16.8 16C17.357 16 17.8911 16.2107 18.2849 16.5858C18.6787 16.9609 18.9 17.4696 18.9 18C18.9 18.5304 18.6787 19.0391 18.2849 19.4142C17.8911 19.7893 17.357 20 16.8 20C16.243 20 15.7089 19.7893 15.3151 19.4142C14.9212 19.0391 14.7 18.5304 14.7 18C14.7 16.89 15.6345 16 16.8 16ZM0 0H3.4335L4.4205 2H19.95C20.2285 2 20.4955 2.10536 20.6925 2.29289C20.8894 2.48043 21 2.73478 21 3C21 3.17 20.9475 3.34 20.874 3.5L17.115 9.97C16.758 10.58 16.065 11 15.2775 11H7.455L6.51 12.63L6.4785 12.75C6.4785 12.8163 6.50616 12.8799 6.55538 12.9268C6.60461 12.9737 6.67138 13 6.741 13H18.9V15H6.3C5.74304 15 5.2089 14.7893 4.81508 14.4142C4.42125 14.0391 4.2 13.5304 4.2 13C4.2 12.65 4.2945 12.32 4.452 12.04L5.88 9.59L2.1 2H0V0ZM6.3 16C6.85695 16 7.3911 16.2107 7.78492 16.5858C8.17875 16.9609 8.4 17.4696 8.4 18C8.4 18.5304 8.17875 19.0391 7.78492 19.4142C7.3911 19.7893 6.85695 20 6.3 20C5.74304 20 5.2089 19.7893 4.81508 19.4142C4.42125 19.0391 4.2 18.5304 4.2 18C4.2 16.89 5.1345 16 6.3 16ZM15.75 9L18.669 4H5.397L7.875 9H15.75Z" fill="#CC9966"/>
</svg>
