<svg width="48" height="49" viewBox="0 0 48 49" fill="none" xmlns="http://www.w3.org/2000/svg">
<path fill-rule="evenodd" clip-rule="evenodd" d="M32.94 49V30.0248H39.18L40.1136 22.6307H32.9376V17.9095C32.9376 15.7682 33.5208 14.308 36.5304 14.308H40.3656V7.693C38.5082 7.49123 36.6415 7.39308 34.7736 7.399C29.244 7.399 25.4592 10.8462 25.4592 17.1745V22.6307H19.2V30.0248H25.4568V49H2.6496C1.1856 49 0 47.7897 0 46.2952V2.7048C0 1.2103 1.1856 0 2.6496 0H45.3504C46.8144 0 48 1.2103 48 2.7048V46.2952C48 47.7897 46.8144 49 45.3504 49H32.94Z" fill="white"/>
</svg>
