<svg width="48" height="49" viewBox="0 0 48 49" fill="none" xmlns="http://www.w3.org/2000/svg">
<path d="M24 18.6659C22.8698 18.6664 21.765 19.0089 20.8255 19.6502C19.886 20.2915 19.1538 21.2028 18.7216 22.2689C18.2893 23.335 18.1765 24.508 18.3972 25.6395C18.618 26.7711 19.1624 27.8104 19.9618 28.6261C20.7611 29.4418 21.7794 29.9972 22.888 30.2221C23.9965 30.4471 25.1455 30.3314 26.1897 29.8898C27.2338 29.4481 28.1263 28.7004 28.7541 27.741C29.382 26.7816 29.7171 25.6538 29.7171 24.5C29.716 22.9527 29.1132 21.4691 28.0412 20.3752C26.9693 19.2813 25.5157 18.6665 24 18.6659ZM37.3618 14.1816C37.0708 13.4289 36.6315 12.7453 36.071 12.1731C35.5105 11.601 34.8409 11.1525 34.1036 10.8555C31.8536 9.94875 26.4964 10.1522 24 10.1522C21.5036 10.1522 16.1518 9.94109 13.8954 10.8555C13.158 11.1525 12.4884 11.601 11.9279 12.1731C11.3674 12.7453 10.9281 13.4289 10.6371 14.1816C9.75 16.4784 9.94821 21.9527 9.94821 24.4989C9.94821 27.0452 9.75 32.5128 10.6414 34.8173C10.9324 35.57 11.3717 36.2536 11.9322 36.8258C12.4927 37.3979 13.1623 37.8464 13.8996 38.1434C16.1496 39.0502 21.5068 38.8467 24.0043 38.8467C26.5018 38.8467 31.8514 39.0578 34.1079 38.1434C34.8452 37.8464 35.5148 37.3979 36.0753 36.8258C36.6358 36.2536 37.0751 35.57 37.3661 34.8173C38.2607 32.5205 38.055 27.0462 38.055 24.5C38.055 21.9538 38.2607 16.4872 37.3661 14.1827L37.3618 14.1816ZM24 33.4688C22.2624 33.4688 20.5637 32.9427 19.1189 31.9572C17.6741 30.9717 16.548 29.571 15.8831 27.9322C15.2181 26.2934 15.0441 24.4901 15.3831 22.7503C15.7221 21.0105 16.5589 19.4124 17.7876 18.1581C19.0163 16.9038 20.5817 16.0496 22.286 15.7036C23.9903 15.3575 25.7568 15.5351 27.3621 16.214C28.9675 16.8928 30.3397 18.0423 31.3051 19.5172C32.2704 20.9921 32.7857 22.7261 32.7857 24.5C32.7871 25.6782 32.5608 26.8451 32.1198 27.9339C31.6788 29.0227 31.0317 30.012 30.2156 30.8451C29.3995 31.6782 28.4304 32.3388 27.3638 32.789C26.2972 33.2392 25.1542 33.4702 24 33.4688ZM33.1479 17.2484C32.7422 17.2487 32.3456 17.1261 32.0082 16.8962C31.6709 16.6663 31.4079 16.3394 31.2525 15.9569C31.0971 15.5744 31.0563 15.1534 31.1353 14.7473C31.2144 14.3411 31.4096 13.968 31.6963 13.6751C31.9831 13.3822 32.3485 13.1827 32.7463 13.1019C33.1441 13.021 33.5565 13.0624 33.9313 13.2208C34.3061 13.3792 34.6264 13.6475 34.8518 13.9918C35.0772 14.3361 35.1975 14.7409 35.1975 15.155C35.1986 15.43 35.1466 15.7025 35.0443 15.9569C34.942 16.2113 34.7916 16.4426 34.6015 16.6375C34.4115 16.8324 34.1857 16.987 33.9369 17.0926C33.6882 17.1982 33.4215 17.2527 33.1521 17.2528L33.1479 17.2484ZM42.8571 0H5.14286C3.77889 0 2.47078 0.553124 1.50631 1.53769C0.541835 2.52226 0 3.85761 0 5.25L0 43.75C0 45.1424 0.541835 46.4777 1.50631 47.4623C2.47078 48.4469 3.77889 49 5.14286 49H42.8571C44.2211 49 45.5292 48.4469 46.4937 47.4623C47.4582 46.4777 48 45.1424 48 43.75V5.25C48 3.85761 47.4582 2.52226 46.4937 1.53769C45.5292 0.553124 44.2211 0 42.8571 0ZM41.0229 31.7188C40.8846 34.522 40.2579 37.0059 38.2532 39.0469C36.2486 41.0878 33.8175 41.7408 31.0746 41.8742C28.245 42.0372 19.7614 42.0372 16.9318 41.8742C14.1857 41.7331 11.7611 41.0922 9.75321 39.0469C7.74536 37.0016 7.11429 34.5166 6.98357 31.7188C6.82393 28.8291 6.82393 20.1677 6.98357 17.2812C7.12179 14.478 7.74107 11.9941 9.75321 9.95312C11.7654 7.91219 14.1964 7.26688 16.9318 7.13344C19.7614 6.97047 28.245 6.97047 31.0746 7.13344C33.8207 7.27453 36.2529 7.91547 38.2532 9.96078C40.2536 12.0061 40.8921 14.4911 41.0229 17.2944C41.1825 20.1731 41.1825 28.8269 41.0229 31.7188Z" fill="white"/>
</svg>
