<svg width="49" height="49" viewBox="0 0 49 49" fill="none" xmlns="http://www.w3.org/2000/svg">
<path d="M44.5722 0.000182234H3.55C2.61923 -0.00929027 1.72272 0.350861 1.05719 1.00161C0.391647 1.65236 0.0114433 2.54055 0 3.47129V44.6592C0.0135128 45.5886 0.394626 46.4747 1.05994 47.1238C1.72525 47.7728 2.62058 48.1319 3.55 48.1224H44.5722C45.503 48.1298 46.3989 47.7684 47.0641 47.1173C47.7293 46.4661 48.1097 45.5781 48.1222 44.6474V3.45946C48.1056 2.53145 47.7234 1.64749 47.0587 0.999727C46.3939 0.351966 45.5004 -0.00724186 44.5722 0.000182234Z" fill="white"/>
<path d="M7.12363 18.038H14.267V41.0223H7.12363V18.038ZM10.6973 6.59912C11.5166 6.59912 12.3175 6.84213 12.9987 7.29739C13.6799 7.75266 14.2107 8.39973 14.5241 9.15675C14.8374 9.91377 14.9192 10.7467 14.7591 11.5502C14.599 12.3538 14.2041 13.0917 13.6245 13.6708C13.0449 14.2498 12.3065 14.644 11.5029 14.8034C10.6992 14.9627 9.86634 14.8801 9.10962 14.5661C8.3529 14.252 7.70633 13.7205 7.25171 13.0389C6.7971 12.3573 6.55486 11.5562 6.55564 10.7368C6.55668 9.63909 6.99349 8.58665 7.77009 7.81079C8.54669 7.03493 9.59955 6.59912 10.6973 6.59912ZM18.7479 18.038H25.5955V21.1936H25.6901C26.6447 19.387 28.9719 17.4818 32.447 17.4818C39.6811 17.4661 41.0222 22.227 41.0222 28.4001V41.0223H33.8788V29.8398C33.8788 27.1773 33.8315 23.7496 30.1671 23.7496C26.5027 23.7496 25.8795 26.6527 25.8795 29.6662V41.0223H18.7479V18.038Z" fill="#556B2F"/>
</svg>
