<svg width="47" height="49" viewBox="0 0 47 49" fill="none" xmlns="http://www.w3.org/2000/svg">
<path d="M40.2857 0H6.71429C3.01094 0 0 3.13906 0 7V42C0 45.8609 3.01094 49 6.71429 49H14.3308L14.1 48.9125C13.5335 43.6516 13.7748 42.6234 15.7471 34.1797C16.1563 32.4297 16.6388 30.3516 17.2054 27.8469C17.2054 27.8469 16.4395 26.2281 16.4395 23.8547C16.4395 16.1219 24.3603 15.3234 24.3603 21.1203C24.3603 22.5969 23.7938 24.5219 23.1853 26.5672C22.8391 27.7266 22.4929 28.9187 22.2306 30.0672C21.6326 32.7469 23.521 34.9234 26.0493 34.9234C30.6339 34.9234 34.1484 29.8922 34.1484 22.6297C34.1484 16.1984 29.7107 11.7031 23.3846 11.7031C16.0513 11.7031 11.75 17.4344 11.75 23.3625C11.75 25.6703 12.6103 28.1422 13.6699 29.4875C13.8797 29.75 13.9112 29.9797 13.8482 30.2531C13.7328 30.7672 13.523 31.6641 13.3551 32.3531C13.2502 32.7906 13.1663 33.1516 13.1348 33.2938C13.0194 33.7859 12.7676 33.8953 12.2746 33.6547C9.06429 32.0906 7.05 27.1906 7.05 23.2531C7.05 14.7766 12.946 7 24.0665 7C33.0049 7 39.95 13.6391 39.95 22.5094C39.95 31.7625 34.3583 39.2109 26.5844 39.2109C23.9721 39.2109 21.5172 37.8 20.6779 36.1266C20.6779 36.1266 19.3875 41.2563 19.0728 42.5141C18.5482 44.625 17.2263 47.2062 16.1982 49H40.2857C43.9891 49 47 45.8609 47 42V7C47 3.13906 43.9891 0 40.2857 0Z" fill="white"/>
</svg>
