<svg width="114" height="114" viewBox="0 0 114 114" fill="none" xmlns="http://www.w3.org/2000/svg">
<path fill-rule="evenodd" clip-rule="evenodd" d="M57 114C64.4854 114 71.8974 112.526 78.813 109.661C85.7285 106.797 92.0121 102.598 97.3051 97.3051C102.598 92.0121 106.797 85.7285 109.661 78.813C112.526 71.8974 114 64.4854 114 57C114 49.5147 112.526 42.1026 109.661 35.187C106.797 28.2715 102.598 21.9879 97.3051 16.6949C92.0121 11.402 85.7285 7.20338 78.813 4.33887C71.8974 1.47435 64.4854 -1.1154e-07 57 0C41.8827 2.25266e-07 27.3845 6.00534 16.6949 16.6949C6.00534 27.3845 0 41.8827 0 57C0 72.1173 6.00534 86.6155 16.6949 97.3051C27.3845 107.995 41.8827 114 57 114ZM49.2923 31.6033L85.0377 51.4647C86.0245 52.0133 86.8467 52.8158 87.4192 53.7891C87.9916 54.7623 88.2935 55.8709 88.2935 57C88.2935 58.1291 87.9916 59.2377 87.4192 60.2109C86.8467 61.1842 86.0245 61.9867 85.0377 62.5353L49.2923 82.3967C48.1349 83.04 46.8295 83.3698 45.5054 83.3533C44.1813 83.3368 42.8845 82.9746 41.7434 82.3027C40.6024 81.6307 39.6567 80.6723 39.0001 79.5224C38.3435 78.3724 37.9987 77.0709 38 75.7467V38.2533C37.9987 36.9291 38.3435 35.6276 39.0001 34.4776C39.6567 33.3277 40.6024 32.3693 41.7434 31.6973C42.8845 31.0254 44.1813 30.6632 45.5054 30.6467C46.8295 30.6302 48.1349 30.96 49.2923 31.6033Z" fill="white" fill-opacity="0.6"/>
</svg>
