<svg width="48" height="49" viewBox="0 0 48 49" fill="none" xmlns="http://www.w3.org/2000/svg">
<path d="M44.0223 0.461608H3.5062C2.58692 0.452136 1.70147 0.812287 1.04414 1.46304C0.386815 2.11378 0.0113021 3.00198 0 3.93272V45.1206C0.0133461 46.05 0.389757 46.9361 1.04686 47.5852C1.70397 48.2342 2.58825 48.5933 3.5062 48.5838H44.0223C44.9416 48.5912 45.8265 48.2298 46.4835 47.5787C47.1404 46.9275 47.5162 46.0395 47.5285 45.1088V3.92089C47.5121 2.99287 47.1346 2.10891 46.478 1.46115C45.8215 0.813392 44.939 0.454184 44.0223 0.461608Z" fill="white"/>
<path d="M32.1302 13.8054C30.887 12.4146 30.2019 10.6283 30.2024 8.7793H24.5827V30.88C24.5393 32.076 24.0241 33.2089 23.1455 34.04C22.2668 34.8711 21.0934 35.3357 19.8722 35.3358C17.2897 35.3358 15.1437 33.2683 15.1437 30.7018C15.1437 27.6362 18.1627 25.337 21.2726 26.2817V20.6495C14.9982 19.8297 9.50571 24.6063 9.50571 30.7018C9.50571 36.6369 14.5253 40.861 19.8541 40.861C25.5648 40.861 30.2024 36.3161 30.2024 30.7018V19.491C32.4812 21.0948 35.2172 21.9553 38.0228 21.9506V16.4433C38.0228 16.4433 34.6037 16.6037 32.1302 13.8054Z" fill="#556B2F"/>
</svg>
