<svg width="24" height="20" viewBox="0 0 24 20" fill="none" xmlns="http://www.w3.org/2000/svg">
<path d="M17.3571 0C15.1446 0 13.2075 0.925218 12 2.48913C10.7925 0.925218 8.85536 0 6.64286 0C4.88167 0.00193039 3.19319 0.683141 1.94784 1.89418C0.702493 3.10522 0.00198508 4.74719 0 6.45986C0 13.7532 11.1204 19.6567 11.5939 19.9005C11.7187 19.9658 11.8583 20 12 20C12.1417 20 12.2813 19.9658 12.4061 19.9005C12.8796 19.6567 24 13.7532 24 6.45986C23.998 4.74719 23.2975 3.10522 22.0522 1.89418C20.8068 0.683141 19.1183 0.00193039 17.3571 0ZM12 18.2126C10.0436 17.104 1.71429 12.0539 1.71429 6.45986C1.71599 5.18924 2.23579 3.97113 3.15971 3.07266C4.08363 2.1742 5.33624 1.66871 6.64286 1.66706C8.72679 1.66706 10.4764 2.74648 11.2071 4.48022C11.2717 4.6331 11.3816 4.76386 11.5228 4.85588C11.6639 4.94791 11.83 4.99704 12 4.99704C12.17 4.99704 12.3361 4.94791 12.4773 4.85588C12.6184 4.76386 12.7283 4.6331 12.7929 4.48022C13.5236 2.74336 15.2732 1.66706 17.3571 1.66706C18.6638 1.66871 19.9164 2.1742 20.8403 3.07266C21.7642 3.97113 22.284 5.18924 22.2857 6.45986C22.2857 12.0455 13.9543 17.103 12 18.2126Z" fill="#CC9966"/>
</svg>
